<?xml version="1.0" encoding="utf-8"?>
<!-- Svg Vector Icons : http://www.onlinewebfonts.com/icon -->
<!DOCTYPE svg PUBLIC "-//W3C//DTD SVG 1.1//EN" "http://www.w3.org/Graphics/SVG/1.1/DTD/svg11.dtd">
<svg version="1.1" xmlns="http://www.w3.org/2000/svg" xmlns:xlink="http://www.w3.org/1999/xlink" x="0px" y="0px" viewBox="0 0 256 256" enable-background="new 0 0 256 256" xml:space="preserve">
<metadata> Svg Vector Icons : http://www.onlinewebfonts.com/icon </metadata>
<g><g><g><path fill="#000000" d="M124.4,21.6c-4.2,1.9-4.2,2-4.5,19.7l-0.3,15.6l-1.6,0.2c-2.2,0.2-13,2.2-14,2.6c-0.6,0.2-1.8-2.7-5.1-13.1c-2.4-7.3-4.7-13.9-5.2-14.6c-2-2.9-7.7-3.9-10.5-1.8c-2.1,1.6-3.8,4.4-3.8,6.3c0,1,1.9,7.8,4.3,15.2c2.3,7.3,4.2,13.4,4.1,13.5c-0.1,0.1-2.3,1.2-5,2.5c-2.6,1.3-6.1,3.1-7.7,4c-1.6,1-3.2,1.6-3.5,1.5c-0.3-0.2-3.7-5.2-7.4-11.3c-3.8-6-7.5-11.6-8.2-12.2c-5.3-5-15,0.9-12.8,7.9c0.3,0.9,3.7,6.7,7.5,12.9c3.9,6.1,7.1,11.5,7.2,11.8c0.2,0.5-2.4,2.8-11.8,10.7c-1.8,1.5-1.9,1.6-2.8,0.5c-0.5-0.5-4.6-5.2-9.1-10.2c-9-10.2-10.9-11.5-14.9-10.4c-2.7,0.8-5.1,2.9-5.8,5.4c-1.2,3.8-0.3,5.4,9.8,16.8c5.1,5.7,9.3,10.6,9.5,11c0.1,0.3-1.3,2.5-3.2,4.9c-10.2,12.5-18.4,26.7-19.6,34c-1.7,10.7,21.6,43.1,43.9,61c24.2,19.4,49.2,29.2,74,29.2c19.7-0.1,38.3-5.6,58-17.4c21.1-12.7,41.6-32.8,53.1-52.3c6.5-11,8.2-18,6-25.1c-2.3-7.4-9-18.6-17.4-29.1c-2.4-3-4.4-5.7-4.4-5.8c0-0.2,3.6-4.4,8.1-9.4c4.5-5,8.7-10,9.5-11.1c2.5-3.8,1.3-9.3-2.5-11.3c-2.2-1.1-6-1.1-7.9,0.2c-0.8,0.5-5.3,5.3-10,10.5c-4.6,5.3-8.6,9.6-8.7,9.6s-2-1.5-4.2-3.4c-2.2-1.8-5.2-4.4-6.8-5.7s-2.9-2.5-2.9-2.8c0.1-0.2,3-5.1,6.6-10.8c7.9-12.7,8.1-12.9,8.1-15.4c0-4.6-3.3-7.9-7.8-7.9c-4.2,0-5.2,1-13.1,13.6l-7.3,11.6l-7.5-3.9c-4.2-2.2-7.9-4-8.4-4.2c-0.6-0.2,0.1-3,3.3-13.2c5.2-16.4,5-15.3,3.7-18.2c-2.3-5.1-8.6-6.5-12.6-2.8c-1.3,1.3-2.4,3.9-6,15l-4.4,13.5l-6.5-1.2c-3.6-0.7-7.4-1.3-8.5-1.5l-2-0.3V41.7c0-13.5-0.1-15.2-1-16.8C132.6,21.2,128.1,19.8,124.4,21.6z M141.8,85.3c14.7,3.1,31.3,11.7,45.5,23.6c6,5,17.9,16.9,22.7,22.8c4.5,5.4,8.5,11.5,8.9,13.8c0.4,2.5-1.1,5.6-6.2,12.4c-4.7,6.3-19.3,21.1-25.9,26.4c-14.4,11.4-29.6,19.1-44.5,22.5c-7.1,1.6-19.2,1.7-26.4,0.3c-20.1-3.9-40.3-16-60.2-35.9c-11-11-18.3-20.8-18.3-24.5c0-4.3,7.5-14.5,19.4-26.2c21.4-21.3,43-33.5,63.7-36.1C126,83.5,135.9,84,141.8,85.3z"/><path fill="#000000" d="M121.2,98.2c-20.4,3.2-36.6,18.7-40.4,38.8c-4.9,25.4,11.1,49.7,36.7,56c5.6,1.3,15.9,1.2,21.9-0.3c18.1-4.5,31.9-18.8,35.8-36.9c1.3-6.1,1.1-15.2-0.5-21.6c-4.4-17.3-18-30.8-35-34.9C134.5,98,125.8,97.5,121.2,98.2z"/></g></g></g>
</svg>