<svg width="107" height="78" viewBox="0 0 107 78" fill="none" xmlns="http://www.w3.org/2000/svg">
<path d="M44.2579 0L46.652 5.73579C53.4206 21.7481 59.5799 38.0778 66.4382 54.0755C69.1097 60.3084 72.745 68.036 79.9946 69.6149C86.8466 71.1064 93.7787 68.2045 94.7777 60.6971C95.5907 54.5856 91.3734 51.146 86.8097 48.236C79.7284 43.7196 71.2072 40.9489 64.8459 35.2989C56.2397 27.6523 57.1457 13.01 65.6461 5.67588C74.6211 -2.06955 87.3629 -0.678514 97.4028 4.10347C98.6984 4.72045 99.9925 5.39249 101.182 6.19731V23.1602C100.865 23.11 100.188 23.2816 99.9764 23.042C99.4649 21.9505 98.971 20.8364 98.4066 19.7692C95.4993 14.2747 90.7224 8.08064 84.6016 6.18112C79.18 4.4986 72.3826 5.59815 69.966 11.3501C66.2089 20.2955 77.1291 25.1309 83.1969 28.3697C92.6659 33.4237 103.515 37.843 106.338 49.4117C109.814 63.6654 99.1699 76.826 85.1019 77.8883C72.2222 78.8599 60.8932 73.6439 54.6906 62.1189C51.9758 57.0729 50.1414 51.4845 47.7344 46.3122L19.6371 46.3527C18.6413 49.0198 17.5011 51.64 16.5438 54.3216C15.3636 57.6284 13.7681 62.3148 14.9627 65.7382C16.3177 69.6198 20.7307 70.9315 24.3723 71.2553V73.5224H0V71.2148C0.42494 70.8861 0.968543 70.6076 1.38066 70.2789C4.80423 67.5373 6.76858 63.2362 8.44749 59.2591C10.6716 53.988 12.7386 48.6263 14.8665 43.3132C20.1053 30.2238 25.3088 17.1021 30.3023 3.92372C30.4546 2.51326 30.0842 1.26311 29.5069 0.00323873H44.2595L44.2579 0ZM22.129 40.5651H45.3804C45.3884 40.4485 45.3868 40.3368 45.358 40.2234C45.1527 39.4089 44.4295 38.1409 44.1056 37.3426C41.0621 29.8465 37.9159 22.3553 34.9477 14.8026C34.6687 14.0917 34.2855 13.3258 34.0225 12.563C33.9632 12.3914 33.697 11.2789 33.6328 11.2546C33.4548 11.1866 33.5045 11.6546 33.3811 11.7291C30.1644 20.2129 26.4954 28.5251 23.3012 37.0138C22.9692 37.898 22.3198 39.3619 22.1466 40.2218C22.1242 40.3368 22.1194 40.4501 22.1274 40.5667L22.129 40.5651Z" fill="black"/>
</svg>
